PathFileType	4	(X/Y/Z)	Run_400 02
DataRate	CameraRate	NumFrames	NumMarkers	Units	OrigDataRate	OrigDataStartFrame	OrigNumFrames
100	100	6	42	mm	100	175	128
Frame#	Time	LASI			RASI			LPSI			RPSI			RTH1			RTH3			LTH1			LTH2			LTH3			RTB1			RTB2			LTB1			LTB2			RCAL			RTOE			LCAL			LTOE			LACR			RACR			CLAV			C7			RUA1			RUA2			RUA3			RLEL			RMEL			LUA1			LUA2			LUA3			LLEL			LMEL			RFAsuperior			RFAradius			RFAulna			LFAsuperior			LFAradius			LFAulna			RTH2			RTB3			RMT5			LMT5			LTB3			
		X1	Y1	Z1	X2	Y2	Z2	X3	Y3	Z3	X4	Y4	Z4	X5	Y5	Z5	X6	Y6	Z6	X7	Y7	Z7	X8	Y8	Z8	X9	Y9	Z9	X10	Y10	Z10	X11	Y11	Z11	X12	Y12	Z12	X13	Y13	Z13	X14	Y14	Z14	X15	Y15	Z15	X16	Y16	Z16	X17	Y17	Z17	X18	Y18	Z18	X19	Y19	Z19	X20	Y20	Z20	X21	Y21	Z21	X22	Y22	Z22	X23	Y23	Z23	X24	Y24	Z24	X25	Y25	Z25	X26	Y26	Z26	X27	Y27	Z27	X28	Y28	Z28	X29	Y29	Z29	X30	Y30	Z30	X31	Y31	Z31	X32	Y32	Z32	X33	Y33	Z33	X34	Y34	Z34	X35	Y35	Z35	X36	Y36	Z36	X37	Y37	Z37	X38	Y38	Z38	X39	Y39	Z39	X40	Y40	Z40	X41	Y41	Z41	X42	Y42	Z42	

172	1.9	779.051687	982.8833080000001	-445.163906	799.048661	958.493278	-199.402415	600.614502	1052.200108	-344.133031	610.6154330000001	1042.869234	-260.323418	748.7434490000001	826.53957	-131.728529	743.0577970000001	586.990958	-153.056383	724.722358	868.210496	-502.863742	818.4507589999999	768.260669	-480.295727	776.305869	620.22108	-459.825774	644.997014	444.409972	-223.1123	540.900091	487.394355	-175.753016	847.4608940000001	401.706397	-377.657	774.897934	329.519555	-435.611916	334.614118	609.086402	-267.544812	285.365465	380.811442	-272.888599	622.604395	85.345342	-305.521746	858.811525	69.654354	-344.320784	760.124681	1491.353332	-494.541518	766.426911	1485.316559	-147.891704	842.331061	1447.715487	-297.503965	699.753348	1523.520995	-331.375864	714.994654	1376.444558	-61.24228	635.0123180000001	1308.138857	-77.13446999999999	676.0678349999999	1267.035485	-24.183432	660.515957	1172.365589	0.890763	614.920697	1157.922168	-66.10020799999999	695.319159	1409.100219	-595.291159	613.573845	1349.353531	-591.77115	649.733164	1316.314965	-656.793234	628.970989	1240.321112	-699.903067	569.980471	1218.610029	-652.878282	715.529357	1112.236198	-16.865516	879.766764	1059.047185	-128.176932	842.231897	1000.100808	-108.345459	708.200952	1160.120734	-643.054584	803.502824	1139.844929	-519.189673	772.971688	1082.758511	-540.565166	807.105474	694.421614	-144.333027	446.479758	468.511891	-243.006059	248.90367	415.021516	-191.484522	810.713037	49.532619	-422.784319	783.596015	207.036304	-345.633464	
173	1.91	776.576185	978.122192	-446.561679	795.633618	952.551441	-199.032015	597.666957	1051.184478	-344.33713	607.341732	1041.098805	-260.772068	750.791905	825.03908	-131.847442	763.1254259999999	586.81245	-151.540807	718.56047	865.174629	-502.201811	811.274599	764.1846	-478.053921	765.503295	615.808029	-458.498329	673.245195	447.313738	-222.757827	568.431506	484.729668	-174.056902	827.291524	394.699921	-375.602732	751.003284	326.086785	-434.179365	357.794103	605.339634	-261.246949	315.381615	375.909363	-271.275552	585.319078	87.704534	-304.463107	820.893052	68.55857	-343.178853	762.8552110000001	1484.001075	-496.302257	763.720535	1481.518106	-148.369925	841.964259	1442.854719	-295.684125	700.501041	1520.048326	-333.143571	708.851948	1373.544663	-61.95194	627.974155	1306.277339	-80.024579	666.300505	1265.126986	-25.353138	648.76602	1170.720211	0.549281	604.511817	1156.498877	-67.168165	702.414162	1398.754608	-597.04917	623.405229	1333.910455	-594.247328	662.619919	1303.725651	-659.0344669999999	648.290471	1226.44005	-702.077714	588.888991	1202.341925	-656.5523459999999	701.81699	1108.083165	-14.839764	864.894647	1044.365769	-121.439653	824.771874	987.526122	-99.86769099999999	729.235756	1150.297231	-642.439828	819.91796	1133.274315	-515.614023	792.934436	1075.12506	-539.791205	819.110655	696.947753	-144.56021	473.625128	466.62837	-241.050173	279.510035	407.050015	-188.398798	772.377176	49.178324	-421.76265	752.524955	203.863997	-344.484185	
174	1.92	774.086216	974.858032	-447.630188	792.64271	949.863543	-197.521484	595.788724	1051.103158	-344.320506	604.124693	1040.550536	-260.685475	751.555797	825.0027260000001	-132.168996	783.772035	590.385441	-150.400925	712.887734	863.0450949999999	-501.083124	803.758791	761.066885	-475.827413	753.30886	612.54345	-459.216219	701.232615	450.021678	-222.975764	595.856623	482.305128	-173.07483	804.436491	388.208327	-374.939494	725.932293	322.645627	-433.842079	378.159317	597.983999	-255.435183	347.19057	367.10305	-269.858963	547.242609	90.33866399999999	-304.643814	782.11263	67.694772	-343.050533	765.811798	1479.176808	-496.852471	761.6268659999999	1479.286339	-148.398498	841.238839	1439.88222	-294.014221	701.735901	1518.964331	-333.953708	703.005343	1373.057668	-62.092515	621.0140709999999	1307.343295	-83.047236	656.048268	1265.980417	-26.564711	636.344174	1172.416479	0.435	593.515074	1158.287263	-68.127444	709.159004	1391.374599	-597.464018	633.7771320000001	1321.502618	-594.758331	675.19911	1294.374258	-659.695648	667.901899	1215.849818	-702.852325	608.087529	1189.386873	-658.8544879999999	687.584615	1107.690636	-12.525985	848.950812	1033.908357	-114.155846	806.209638	979.158805	-92.099828	750.782974	1143.527196	-640.990579	837.117671	1129.59208	-510.821182	813.407947	1071.803658	-539.120454	831.4658030000001	702.657912	-145.692487	500.914074	463.971539	-240.214367	311.985062	394.453131	-185.327026	733.589474	49.010414	-422.026119	719.707454	201.220742	-344.233476	
175	1.93	771.397128	972.861525	-448.179705	789.726568	950.605191	-195.763985	594.633999	1051.71028	-344.478616	600.830732	1040.915694	-260.415405	751.533969	826.459265	-132.544914	804.313355	597.623605	-149.686969	707.787258	862.077692	-500.410037	795.339974	757.706626	-474.851721	738.916611	610.644228	-461.439708	728.402322	452.666693	-224.132699	622.563222	480.343455	-172.708257	779.1346610000001	383.045278	-375.367478	698.838243	320.50784	-434.079829	396.30033	586.832375	-250.4784	380.557332	354.809171	-268.453162	508.616009	94.25253600000001	-305.419466	742.509441	67.20380400000001	-343.744541	769.186236	1477.069479	-496.475376	759.712879	1478.815438	-148.0654	840.417288	1438.549682	-292.414017	702.759772	1519.461392	-334.263284	697.158675	1375.083178	-61.786627	614.161222	1311.269828	-85.822228	645.576262	1269.73645	-27.517294	623.267018	1177.425174	0.7069569999999999	581.905918	1163.399317	-68.76310700000001	716.426506	1386.598261	-597.062454	644.77229	1312.439525	-594.15762	687.852229	1287.981261	-659.109725	687.030548	1208.720382	-702.372289	626.819711	1179.93581	-659.883972	672.7004010000001	1110.800007	-10.031675	832.584736	1028.332714	-106.896922	787.101173	975.616981	-85.701572	771.783034	1139.816635	-638.181736	854.573877	1129.982003	-505.017049	833.836759	1072.978572	-536.720376	843.59333	711.602952	-147.427198	528.272481	460.042634	-240.249567	345.892908	378.190821	-182.42142	693.9395940000001	48.971332	-422.801591	685.540588	199.946523	-344.612522	
176	1.94	768.5869740000001	972.331126	-448.128066	786.481897	954.267034	-194.445485	593.596673	1053.485095	-344.95493	598.00279	1042.709623	-260.485463	751.488328	830.099791	-132.587738	823.8133350000001	608.299296	-149.597683	703.024892	862.494115	-500.409184	785.426876	753.971739	-475.260099	721.815476	609.95887	-463.476167	754.57035	455.868319	-225.971355	648.234404	479.083236	-172.75301	751.9249150000001	379.730064	-376.724946	669.040295	320.807469	-434.73231	413.057791	571.824527	-246.60267	415.436676	339.574409	-266.793158	470.184753	100.393741	-306.515012	702.413451	66.947502	-344.788471	773.202052	1477.591373	-495.550955	757.557276	1480.384335	-147.491884	839.6889650000001	1439.012597	-290.624367	703.2077420000001	1521.114051	-334.463602	691.006425	1379.44463	-61.320147	607.257344	1317.701779	-88.055412	635.095382	1276.295489	-27.969114	609.730507	1185.239075	1.411044	569.805788	1171.512998	-68.958386	725.11639	1384.393889	-596.2719	656.094972	1307.000166	-593.4247789999999	701.02254	1284.361387	-657.694654	705.171078	1204.886931	-700.717883	644.559736	1173.791524	-659.726729	657.189318	1116.75514	-7.6466	816.471976	1027.771259	-100.176064	768.19458	976.995523	-80.95362900000001	791.517994	1139.461433	-633.802783	871.502121	1135.131314	-498.449038	853.674663	1077.730208	-530.41478	854.839643	723.494961	-149.355982	555.996808	454.086551	-240.342854	380.929906	359.243319	-179.744511	653.468663	48.777437	-423.372546	650.7668609999999	200.709232	-345.834057	
177	1.95	766.1128670000001	973.516488	-447.545559	783.225551	960.274255	-193.610953	592.37625	1056.869616	-345.61378	596.177458	1046.278434	-261.125427	752.150398	836.422604	-132.115426	841.310368	621.7640249999999	-150.277156	698.2382710000001	864.271102	-500.651219	773.802011	750.685793	-476.393051	702.296145	610.3534090000001	-463.914567	779.6783380000001	460.265692	-227.873686	672.7311120000001	478.554927	-172.991688	723.389579	378.555062	-378.790152	637.099396	323.827398	-435.841564	429.159991	553.064125	-243.98627	451.994194	322.052799	-264.680054	432.564629	108.914466	-308.14971	662.167857	66.76240300000001	-345.799438	777.890002	1480.544572	-494.236449	754.921563	1484.119847	-146.738392	839.078799	1441.632184	-288.431143	703.312244	1524.091602	-334.593879	684.416904	1385.902931	-60.905718	600.125332	1326.257027	-89.70692	624.72101	1285.379115	-27.860802	596.1177730000001	1195.295077	2.434618	557.474876	1182.138205	-68.763762	735.337079	1384.977732	-595.161263	667.215903	1305.580482	-593.291939	714.698205	1283.569262	-655.70975	722.0414050000001	1204.096247	-697.927386	660.988463	1170.597704	-658.501276	641.444972	1125.065687	-5.607991	800.989209	1031.783928	-94.196502	750.176956	982.774762	-77.60977699999999	809.684254	1142.869574	-628.1314609999999	887.110147	1144.918734	-491.290101	872.434826	1085.339286	-520.004813	864.672199	737.6927899999999	-151.102272	584.147916	446.036787	-239.842044	417.101105	338.412803	-177.255896	612.678814	48.481293	-423.727453	615.905115	203.706161	-347.856587	
